<svg width="15" height="16" viewBox="0 0 15 16" fill="none" xmlns="http://www.w3.org/2000/svg">
<g clip-path="url(#clip0_1_23)">
<mask id="mask0_1_23" style="mask-type:luminance" maskUnits="userSpaceOnUse" x="0" y="1" width="11" height="15">
<path d="M11 1H0V16H11V1Z" fill="white"/>
</mask>
<g mask="url(#mask0_1_23)">
<path d="M9.5 16H1.5C1.10218 16 0.720644 15.842 0.43934 15.5607C0.158035 15.2794 0 14.8978 0 14.5V2.5C0 2.10218 0.158035 1.72064 0.43934 1.43934C0.720644 1.15804 1.10218 1 1.5 1H3.5C3.63261 1 3.75979 1.05268 3.85355 1.14645C3.94732 1.24021 4 1.36739 4 1.5C4 1.63261 3.94732 1.75979 3.85355 1.85355C3.75979 1.94732 3.63261 2 3.5 2H1.5C1.36739 2 1.24021 2.05268 1.14645 2.14645C1.05268 2.24021 1 2.36739 1 2.5V14.5C1 14.6326 1.05268 14.7598 1.14645 14.8536C1.24021 14.9473 1.36739 15 1.5 15H9.5C9.63261 15 9.75979 14.9473 9.85355 14.8536C9.94732 14.7598 10 14.6326 10 14.5V8.5C10 8.36739 10.0527 8.24021 10.1464 8.14645C10.2402 8.05268 10.3674 8 10.5 8C10.6326 8 10.7598 8.05268 10.8536 8.14645C10.9473 8.24021 11 8.36739 11 8.5V14.5C11 14.8978 10.842 15.2794 10.5607 15.5607C10.2794 15.842 9.89782 16 9.5 16Z" fill="#61DDFE"/>
</g>
<mask id="mask1_1_23" style="mask-type:luminance" maskUnits="userSpaceOnUse" x="5" y="0" width="10" height="9">
<path d="M15 0H5V9H15V0Z" fill="white"/>
</mask>
<g mask="url(#mask1_1_23)">
<path d="M5.5 9C5.36739 9 5.24021 8.94732 5.14645 8.85355C5.05268 8.75979 5 8.63261 5 8.5V1.5C5 1.10218 5.15804 0.720644 5.43934 0.43934C5.72064 0.158035 6.10218 0 6.5 0H13.5C13.8978 0 14.2794 0.158035 14.5607 0.43934C14.842 0.720644 15 1.10218 15 1.5V5.5C15 5.89782 14.842 6.27936 14.5607 6.56066C14.2794 6.84196 13.8978 7 13.5 7H8.651L5.777 8.916C5.69497 8.9707 5.5986 8.99992 5.5 9ZM6.5 1C6.36739 1 6.24021 1.05268 6.14645 1.14645C6.05268 1.24021 6 1.36739 6 1.5V7.566L8.223 6.084C8.30503 6.0293 8.4014 6.00008 8.5 6H13.5C13.6326 6 13.7598 5.94732 13.8536 5.85355C13.9473 5.75979 14 5.63261 14 5.5V1.5C14 1.36739 13.9473 1.24021 13.8536 1.14645C13.7598 1.05268 13.6326 1 13.5 1H6.5Z" fill="#61DDFE"/>
</g>
</g>
<defs>
<clipPath id="clip0_1_23">
<rect width="15" height="16" fill="white"/>
</clipPath>
</defs>
</svg>
