<svg width="16" height="14" viewBox="0 0 16 14" fill="none" xmlns="http://www.w3.org/2000/svg">
<g clip-path="url(#clip0_1_8)">
<mask id="mask0_1_8" style="mask-type:luminance" maskUnits="userSpaceOnUse" x="0" y="3" width="16" height="5">
<path d="M16 3H0V8H16V3Z" fill="white"/>
</mask>
<g mask="url(#mask0_1_8)">
<path d="M8 8C7.91802 7.9999 7.83731 7.97964 7.765 7.941L0.265003 3.941C0.150161 3.87739 0.0649436 3.77117 0.0277501 3.64527C-0.00944328 3.51937 0.00437171 3.38389 0.0662122 3.26809C0.128053 3.15228 0.232957 3.06545 0.358274 3.02633C0.48359 2.98721 0.619265 2.99894 0.736003 3.059L8 6.933L15.265 3.058C15.323 3.02588 15.3868 3.00561 15.4527 2.99837C15.5186 2.99114 15.5853 2.99709 15.6489 3.01588C15.7125 3.03466 15.7717 3.06591 15.8231 3.1078C15.8745 3.14968 15.9171 3.20138 15.9483 3.25986C15.9795 3.31835 15.9988 3.38247 16.0051 3.44848C16.0113 3.5145 16.0043 3.58109 15.9846 3.64438C15.9648 3.70768 15.9326 3.76641 15.89 3.81716C15.8473 3.86791 15.795 3.90967 15.736 3.94L8.236 7.94C8.16348 7.97915 8.08241 7.99976 8 8Z" fill="#61DDFE"/>
</g>
<mask id="mask1_1_8" style="mask-type:luminance" maskUnits="userSpaceOnUse" x="0" y="0" width="16" height="14">
<path d="M16 0H0V14H16V0Z" fill="white"/>
</mask>
<g mask="url(#mask1_1_8)">
<path d="M14 14H2C1.46957 14 0.960859 13.7893 0.585786 13.4142C0.210714 13.0391 0 12.5304 0 12V2C0 1.46957 0.210714 0.960859 0.585786 0.585786C0.960859 0.210714 1.46957 0 2 0H14C14.5304 0 15.0391 0.210714 15.4142 0.585786C15.7893 0.960859 16 1.46957 16 2V12C16 12.5304 15.7893 13.0391 15.4142 13.4142C15.0391 13.7893 14.5304 14 14 14ZM2 1C1.73478 1 1.48043 1.10536 1.29289 1.29289C1.10536 1.48043 1 1.73478 1 2V12C1 12.2652 1.10536 12.5196 1.29289 12.7071C1.48043 12.8946 1.73478 13 2 13H14C14.2652 13 14.5196 12.8946 14.7071 12.7071C14.8946 12.5196 15 12.2652 15 12V2C15 1.73478 14.8946 1.48043 14.7071 1.29289C14.5196 1.10536 14.2652 1 14 1H2Z" fill="#61DDFE"/>
</g>
</g>
<defs>
<clipPath id="clip0_1_8">
<rect width="16" height="14" fill="white"/>
</clipPath>
</defs>
</svg>
